<svg xmlns="http://www.w3.org/2000/svg" width="512" height="512" viewBox="0 0 512 512" fill="none">
  <defs>
    <linearGradient id="sky" x1="0" y1="0" x2="512" y2="512" gradientUnits="userSpaceOnUse">
      <stop offset="0" stop-color="#38bdf8"/>
      <stop offset="1" stop-color="#0284c7"/>
    </linearGradient>
  </defs>
  <rect width="512" height="512" rx="104" fill="url(#sky)"/>
  <!-- mast -->
  <rect x="250" y="92" width="10" height="272" rx="5" fill="#fff"/>
  <!-- mainsail -->
  <path fill="#fff" d="M270 104c74 40 120 118 132 200a8 8 0 0 1-8 9H270a8 8 0 0 1-8-8V111c0-6 3-10 8-7Z"/>
  <!-- jib -->
  <path fill="#e0f2fe" d="M240 150c-42 32-70 78-84 145a8 8 0 0 0 8 9h76a8 8 0 0 0 8-8V156c0-7-6-11-8-6Z"/>
  <!-- hull -->
  <path fill="#0c4a6e" d="M128 358h256a10 10 0 0 1 9 15l-30 54a24 24 0 0 1-21 12H170a24 24 0 0 1-21-12l-30-54a10 10 0 0 1 9-15Z"/>
  <!-- water -->
  <path stroke="#fff" stroke-width="14" stroke-linecap="round" opacity="0.85" d="M96 430c22 0 22 14 44 14s22-14 44-14 22 14 44 14 22-14 44-14 22 14 44 14 22-14 44-14"/>
</svg>
